<svg id="visual" viewBox="0 0 900 450" width="900" height="450" xmlns="http://www.w3.org/2000/svg" xmlns:xlink="http://www.w3.org/1999/xlink" version="1.1"><rect x="0" y="0" width="900" height="450" fill="#fff"></rect><path d="M0 179L43 179L43 179L86 179L86 179L129 179L129 179L171 179L171 179L214 179L214 179L257 179L257 179L300 179L300 179L343 179L343 179L386 179L386 179L429 179L429 179L471 179L471 179L514 179L514 179L557 179L557 179L600 179L600 179L643 179L643 179L686 179L686 179L729 179L729 179L771 179L771 179L814 179L814 179L857 179L857 179L900 179L900 179L900 0L900 0L857 0L857 0L814 0L814 0L771 0L771 0L729 0L729 0L686 0L686 0L643 0L643 0L600 0L600 0L557 0L557 0L514 0L514 0L471 0L471 0L429 0L429 0L386 0L386 0L343 0L343 0L300 0L300 0L257 0L257 0L214 0L214 0L171 0L171 0L129 0L129 0L86 0L86 0L43 0L43 0L0 0Z" fill="#0C74C1" stroke-linecap="square" stroke-linejoin="miter"></path></svg>