<svg xmlns="http://www.w3.org/2000/svg" version="1.1" viewBox="0 0 1894 813"><path d="M 345.246 255.254 L 300 300.508 300 346.254 L 300 392 345.500 392 L 391 392 391 301 C 391 250.950, 390.886 210, 390.746 210 C 390.606 210, 370.131 230.364, 345.246 255.254 M 527.250 301.250 L 482 346.508 482 437.503 L 482 528.497 527.505 482.992 L 573.011 437.487 572.755 346.739 L 572.500 255.992 527.250 301.250 M 1678 305.627 C 1662.760 308.569, 1651.381 317.093, 1646.905 328.921 C 1644.086 336.369, 1644.596 349.327, 1647.967 355.936 C 1652.630 365.076, 1664.005 373.327, 1680.498 379.536 C 1697.118 385.791, 1702 389.993, 1702 398.042 C 1702 410.259, 1687.043 415.904, 1674.363 408.473 C 1670.366 406.130, 1664 398.511, 1664 396.070 C 1664 395.481, 1663.708 395, 1663.350 395 C 1662.648 395, 1640.739 404.947, 1640.133 405.541 C 1639.221 406.435, 1646.099 418.923, 1649.606 422.738 C 1658.638 432.567, 1671.208 437.474, 1687 437.335 C 1702.612 437.198, 1713.066 432.983, 1722.316 423.093 C 1729.583 415.324, 1731.377 410.471, 1731.406 398.500 C 1731.427 390.036, 1731.075 387.772, 1729.110 383.760 C 1724.255 373.844, 1713.479 366.381, 1691.092 357.426 C 1674.390 350.746, 1668.910 342.609, 1675.868 334.822 C 1678.427 331.958, 1679.434 331.567, 1685.201 331.200 C 1693.315 330.683, 1698.517 333.070, 1703.223 339.468 C 1705.026 341.918, 1706.882 343.940, 1707.350 343.961 C 1708.721 344.024, 1728 332.865, 1728 332.008 C 1728 331.579, 1726.126 328.421, 1723.835 324.990 C 1719.027 317.791, 1710.585 311.111, 1702.447 308.066 C 1697.008 306.031, 1683.097 304.643, 1678 305.627 M 658 371.500 L 658 436 672.500 436 L 687 436 687 410.500 L 687 385 711.500 385 L 736 385 736 410.500 L 736 436 750.500 436 L 765 436 765 371.500 L 765 307 750.500 307 L 736 307 736 332.500 L 736 358 711.500 358 L 687 358 687 332.500 L 687 307 672.500 307 L 658 307 658 371.500 M 799.236 370.738 C 785.891 405.807, 774.979 434.837, 774.986 435.250 C 774.994 435.663, 781.869 436, 790.263 436 L 805.527 436 809.006 425.984 L 812.484 415.968 838.894 416.234 L 865.304 416.500 868.788 426.250 L 872.272 436 887.704 436 C 901.946 436, 903.092 435.865, 902.576 434.250 C 902.268 433.288, 891.283 404.375, 878.165 370 L 854.313 307.500 838.906 307.238 L 823.500 306.976 799.236 370.738 M 913 371.500 L 913 436 927.500 436 L 942 436 942 414.958 L 942 393.916 949.735 394.208 L 957.469 394.500 970.051 415 L 982.632 435.500 997.914 435.777 L 1013.196 436.053 1010.878 432.277 C 1009.604 430.199, 1003.021 419.776, 996.250 409.114 C 989.479 398.451, 984.066 389.642, 984.220 389.537 C 984.374 389.433, 986.168 388.345, 988.206 387.119 C 993.828 383.739, 1000.630 375.572, 1003.129 369.202 C 1005.863 362.230, 1006.773 348.080, 1005.004 340.022 C 1002.382 328.072, 994.530 317.854, 983.769 312.389 C 974.694 307.779, 968.564 307.031, 939.750 307.015 L 913 307 913 371.500 M 1027 371.500 L 1027 436 1055.250 435.983 C 1076.003 435.970, 1085.308 435.582, 1090.315 434.521 C 1112.805 429.756, 1130.403 412.435, 1136.563 389 C 1138.834 380.362, 1138.858 363.778, 1136.613 354.500 C 1130.994 331.279, 1112.863 313.256, 1090.315 308.479 C 1085.308 307.418, 1076.003 307.030, 1055.250 307.017 L 1027 307 1027 371.500 M 1143.147 313.250 C 1144.200 316.688, 1153.272 345.600, 1163.307 377.500 L 1181.554 435.500 1193.027 435.767 L 1204.500 436.033 1217.993 396.075 C 1225.414 374.097, 1231.772 356.652, 1232.122 357.308 C 1232.473 357.964, 1238.191 374.475, 1244.829 394 C 1251.467 413.525, 1257.415 430.962, 1258.047 432.750 L 1259.196 436 1270.517 436 L 1281.839 436 1283.374 431.250 C 1284.598 427.465, 1319.559 315.425, 1321.600 308.750 C 1322.093 307.137, 1320.956 307, 1307.100 307 L 1292.064 307 1289.588 315.250 C 1288.226 319.788, 1283.032 337.416, 1278.047 354.425 C 1273.061 371.434, 1268.839 385.495, 1268.663 385.671 C 1268.487 385.846, 1262.711 368.330, 1255.826 346.745 L 1243.309 307.500 1231.872 307.220 L 1220.435 306.940 1208.039 345.720 C 1201.221 367.049, 1195.386 384.814, 1195.071 385.197 C 1194.757 385.580, 1189.325 368.147, 1183 346.455 L 1171.500 307.017 1156.367 307.008 L 1141.234 307 1143.147 313.250 M 1349.557 310.224 C 1347.266 315.731, 1302.778 432.380, 1302.256 434.250 C 1301.805 435.862, 1302.984 436, 1317.240 436 L 1332.714 436 1336.105 425.984 L 1339.495 415.968 1365.997 416.234 L 1392.500 416.500 1395.860 426.250 L 1399.219 436 1414.610 436 C 1423.074 436, 1429.990 435.663, 1429.977 435.250 C 1429.964 434.837, 1419.033 405.925, 1405.685 371 L 1381.416 307.500 1366.168 307.224 L 1350.920 306.947 1349.557 310.224 M 1440 371.500 L 1440 436 1454.500 436 L 1469 436 1469 415 L 1469 394 1476.452 394 L 1483.904 394 1486.769 398.250 C 1488.345 400.587, 1493.836 409.475, 1498.973 418 C 1504.109 426.525, 1508.832 434.075, 1509.469 434.778 C 1510.332 435.730, 1514.379 435.985, 1525.351 435.778 L 1540.075 435.500 1525.576 412.601 L 1511.078 389.702 1515.289 387.019 C 1525.035 380.809, 1531.600 370.047, 1532.816 358.285 C 1535.462 332.704, 1523.091 314.005, 1499.907 308.540 C 1495.040 307.393, 1487.071 307.026, 1466.750 307.015 L 1440 307 1440 371.500 M 1554 371.500 L 1554 436 1592 436 L 1630 436 1630 423 L 1630 410 1606.500 410 L 1583 410 1583 397 L 1583 384 1602 384 L 1621 384 1621 371 L 1621 358 1602 358 L 1583 358 1583 345.500 L 1583 333 1606 333 L 1629 333 1629 320 L 1629 307 1591.500 307 L 1554 307 1554 371.500 M 942 351.466 L 942 370.211 953.750 369.855 C 966.604 369.466, 970.284 368.192, 974.365 362.718 C 977.508 358.501, 977.891 347.667, 975.090 342.177 C 971.831 335.787, 967.053 333.827, 953.260 333.218 L 942 332.721 942 351.466 M 1469 351.466 L 1469 370.211 1480.750 369.855 C 1493.968 369.455, 1497.687 368.072, 1501.747 362.048 C 1504.704 357.660, 1504.915 347.192, 1502.151 341.984 C 1498.958 335.969, 1493.584 333.806, 1480.388 333.224 L 1469 332.721 1469 351.466 M 1055.750 334.569 C 1055.338 334.989, 1055 351.908, 1055 372.167 L 1055 409 1067.818 409 C 1086.213 409, 1093.990 406.320, 1100.926 397.593 C 1112.098 383.535, 1111.038 355.360, 1098.877 343.093 C 1097.020 341.220, 1093.025 338.534, 1090 337.126 C 1085.103 334.845, 1082.964 334.523, 1070.500 334.185 C 1062.800 333.976, 1056.162 334.149, 1055.750 334.569 M 830.730 365.315 C 826.457 377.517, 822.969 387.837, 822.980 388.250 C 823.001 389.053, 855 389.325, 855 388.522 C 855 387.555, 839.679 344.477, 839.100 343.815 C 838.770 343.438, 835.004 353.113, 830.730 365.315 M 1357.705 365.750 C 1353.464 377.712, 1349.995 387.837, 1349.997 388.250 C 1349.999 388.663, 1357.200 389, 1366 389 C 1374.800 389, 1382 388.694, 1382 388.319 C 1382 386.885, 1366.482 344, 1365.963 344 C 1365.663 344, 1361.946 353.788, 1357.705 365.750 M 163.250 392.250 L 118 437.508 118 528.503 L 118 619.497 163.505 573.992 L 209.011 528.487 208.755 437.739 L 208.500 346.992 163.250 392.250 M 300 562.746 L 300 653.492 345.500 608 L 391 562.508 391 517.254 L 391 472 345.500 472 L 300 472 300 562.746" stroke="none" fill="#05588f" fill-rule="evenodd"/><path d="M -0 406.501 L -0 813.001 946.750 812.751 L 1893.500 812.500 1893.751 406.250 L 1894.002 0 947.001 0 L 0 0 -0 406.501 M 0.495 407 C 0.495 630.575, 0.610 722.037, 0.750 610.250 C 0.890 498.462, 0.890 315.537, 0.750 203.750 C 0.610 91.962, 0.495 183.425, 0.495 407 M 345.246 255.254 L 300 300.508 300 346.254 L 300 392 345.500 392 L 391 392 391 301 C 391 250.950, 390.886 210, 390.746 210 C 390.606 210, 370.131 230.364, 345.246 255.254 M 527.250 301.250 L 482 346.508 482 437.503 L 482 528.497 527.505 482.992 L 573.011 437.487 572.755 346.739 L 572.500 255.992 527.250 301.250 M 1678 305.627 C 1662.760 308.569, 1651.381 317.093, 1646.905 328.921 C 1644.086 336.369, 1644.596 349.327, 1647.967 355.936 C 1652.630 365.076, 1664.005 373.327, 1680.498 379.536 C 1697.118 385.791, 1702 389.993, 1702 398.042 C 1702 410.259, 1687.043 415.904, 1674.363 408.473 C 1670.366 406.130, 1664 398.511, 1664 396.070 C 1664 395.481, 1663.708 395, 1663.350 395 C 1662.648 395, 1640.739 404.947, 1640.133 405.541 C 1639.221 406.435, 1646.099 418.923, 1649.606 422.738 C 1658.638 432.567, 1671.208 437.474, 1687 437.335 C 1702.612 437.198, 1713.066 432.983, 1722.316 423.093 C 1729.583 415.324, 1731.377 410.471, 1731.406 398.500 C 1731.427 390.036, 1731.075 387.772, 1729.110 383.760 C 1724.255 373.844, 1713.479 366.381, 1691.092 357.426 C 1674.390 350.746, 1668.910 342.609, 1675.868 334.822 C 1678.427 331.958, 1679.434 331.567, 1685.201 331.200 C 1693.315 330.683, 1698.517 333.070, 1703.223 339.468 C 1705.026 341.918, 1706.882 343.940, 1707.350 343.961 C 1708.721 344.024, 1728 332.865, 1728 332.008 C 1728 331.579, 1726.126 328.421, 1723.835 324.990 C 1719.027 317.791, 1710.585 311.111, 1702.447 308.066 C 1697.008 306.031, 1683.097 304.643, 1678 305.627 M 658 371.500 L 658 436 672.500 436 L 687 436 687 410.500 L 687 385 711.500 385 L 736 385 736 410.500 L 736 436 750.500 436 L 765 436 765 371.500 L 765 307 750.500 307 L 736 307 736 332.500 L 736 358 711.500 358 L 687 358 687 332.500 L 687 307 672.500 307 L 658 307 658 371.500 M 799.236 370.738 C 785.891 405.807, 774.979 434.837, 774.986 435.250 C 774.994 435.663, 781.869 436, 790.263 436 L 805.527 436 809.006 425.984 L 812.484 415.968 838.894 416.234 L 865.304 416.500 868.788 426.250 L 872.272 436 887.704 436 C 901.946 436, 903.092 435.865, 902.576 434.250 C 902.268 433.288, 891.283 404.375, 878.165 370 L 854.313 307.500 838.906 307.238 L 823.500 306.976 799.236 370.738 M 913 371.500 L 913 436 927.500 436 L 942 436 942 414.958 L 942 393.916 949.735 394.208 L 957.469 394.500 970.051 415 L 982.632 435.500 997.914 435.777 L 1013.196 436.053 1010.878 432.277 C 1009.604 430.199, 1003.021 419.776, 996.250 409.114 C 989.479 398.451, 984.066 389.642, 984.220 389.537 C 984.374 389.433, 986.168 388.345, 988.206 387.119 C 993.828 383.739, 1000.630 375.572, 1003.129 369.202 C 1005.863 362.230, 1006.773 348.080, 1005.004 340.022 C 1002.382 328.072, 994.530 317.854, 983.769 312.389 C 974.694 307.779, 968.564 307.031, 939.750 307.015 L 913 307 913 371.500 M 1027 371.500 L 1027 436 1055.250 435.983 C 1076.003 435.970, 1085.308 435.582, 1090.315 434.521 C 1112.805 429.756, 1130.403 412.435, 1136.563 389 C 1138.834 380.362, 1138.858 363.778, 1136.613 354.500 C 1130.994 331.279, 1112.863 313.256, 1090.315 308.479 C 1085.308 307.418, 1076.003 307.030, 1055.250 307.017 L 1027 307 1027 371.500 M 1143.147 313.250 C 1144.200 316.688, 1153.272 345.600, 1163.307 377.500 L 1181.554 435.500 1193.027 435.767 L 1204.500 436.033 1217.993 396.075 C 1225.414 374.097, 1231.772 356.652, 1232.122 357.308 C 1232.473 357.964, 1238.191 374.475, 1244.829 394 C 1251.467 413.525, 1257.415 430.962, 1258.047 432.750 L 1259.196 436 1270.517 436 L 1281.839 436 1283.374 431.250 C 1284.598 427.465, 1319.559 315.425, 1321.600 308.750 C 1322.093 307.137, 1320.956 307, 1307.100 307 L 1292.064 307 1289.588 315.250 C 1288.226 319.788, 1283.032 337.416, 1278.047 354.425 C 1273.061 371.434, 1268.839 385.495, 1268.663 385.671 C 1268.487 385.846, 1262.711 368.330, 1255.826 346.745 L 1243.309 307.500 1231.872 307.220 L 1220.435 306.940 1208.039 345.720 C 1201.221 367.049, 1195.386 384.814, 1195.071 385.197 C 1194.757 385.580, 1189.325 368.147, 1183 346.455 L 1171.500 307.017 1156.367 307.008 L 1141.234 307 1143.147 313.250 M 1349.557 310.224 C 1347.266 315.731, 1302.778 432.380, 1302.256 434.250 C 1301.805 435.862, 1302.984 436, 1317.240 436 L 1332.714 436 1336.105 425.984 L 1339.495 415.968 1365.997 416.234 L 1392.500 416.500 1395.860 426.250 L 1399.219 436 1414.610 436 C 1423.074 436, 1429.990 435.663, 1429.977 435.250 C 1429.964 434.837, 1419.033 405.925, 1405.685 371 L 1381.416 307.500 1366.168 307.224 L 1350.920 306.947 1349.557 310.224 M 1440 371.500 L 1440 436 1454.500 436 L 1469 436 1469 415 L 1469 394 1476.452 394 L 1483.904 394 1486.769 398.250 C 1488.345 400.587, 1493.836 409.475, 1498.973 418 C 1504.109 426.525, 1508.832 434.075, 1509.469 434.778 C 1510.332 435.730, 1514.379 435.985, 1525.351 435.778 L 1540.075 435.500 1525.576 412.601 L 1511.078 389.702 1515.289 387.019 C 1525.035 380.809, 1531.600 370.047, 1532.816 358.285 C 1535.462 332.704, 1523.091 314.005, 1499.907 308.540 C 1495.040 307.393, 1487.071 307.026, 1466.750 307.015 L 1440 307 1440 371.500 M 1554 371.500 L 1554 436 1592 436 L 1630 436 1630 423 L 1630 410 1606.500 410 L 1583 410 1583 397 L 1583 384 1602 384 L 1621 384 1621 371 L 1621 358 1602 358 L 1583 358 1583 345.500 L 1583 333 1606 333 L 1629 333 1629 320 L 1629 307 1591.500 307 L 1554 307 1554 371.500 M 942 351.466 L 942 370.211 953.750 369.855 C 966.604 369.466, 970.284 368.192, 974.365 362.718 C 977.508 358.501, 977.891 347.667, 975.090 342.177 C 971.831 335.787, 967.053 333.827, 953.260 333.218 L 942 332.721 942 351.466 M 1469 351.466 L 1469 370.211 1480.750 369.855 C 1493.968 369.455, 1497.687 368.072, 1501.747 362.048 C 1504.704 357.660, 1504.915 347.192, 1502.151 341.984 C 1498.958 335.969, 1493.584 333.806, 1480.388 333.224 L 1469 332.721 1469 351.466 M 1055.750 334.569 C 1055.338 334.989, 1055 351.908, 1055 372.167 L 1055 409 1067.818 409 C 1086.213 409, 1093.990 406.320, 1100.926 397.593 C 1112.098 383.535, 1111.038 355.360, 1098.877 343.093 C 1097.020 341.220, 1093.025 338.534, 1090 337.126 C 1085.103 334.845, 1082.964 334.523, 1070.500 334.185 C 1062.800 333.976, 1056.162 334.149, 1055.750 334.569 M 830.730 365.315 C 826.457 377.517, 822.969 387.837, 822.980 388.250 C 823.001 389.053, 855 389.325, 855 388.522 C 855 387.555, 839.679 344.477, 839.100 343.815 C 838.770 343.438, 835.004 353.113, 830.730 365.315 M 1357.705 365.750 C 1353.464 377.712, 1349.995 387.837, 1349.997 388.250 C 1349.999 388.663, 1357.200 389, 1366 389 C 1374.800 389, 1382 388.694, 1382 388.319 C 1382 386.885, 1366.482 344, 1365.963 344 C 1365.663 344, 1361.946 353.788, 1357.705 365.750 M 163.250 392.250 L 118 437.508 118 528.503 L 118 619.497 163.505 573.992 L 209.011 528.487 208.755 437.739 L 208.500 346.992 163.250 392.250 M 300 562.746 L 300 653.492 345.500 608 L 391 562.508 391 517.254 L 391 472 345.500 472 L 300 472 300 562.746" stroke="none" fill="#fff" fill-rule="evenodd"/></svg>